<?xml version="1.0" encoding="UTF-8"?>
<svg width="100pt" height="100pt" version="1.1" viewBox="0 0 100 100" xmlns="http://www.w3.org/2000/svg">
 <g>
  <path d="m43.008 50.387c0.050782-0.61719-0.14453-1.2188-0.54687-1.6914-0.44141-0.51953-1.0859-0.81641-1.7695-0.81641-0.55078 0-1.0859 0.19531-1.5039 0.55469l-9.4297 8.0312c-0.51953 0.44141-0.81641 1.0859-0.81641 1.7656 0 0.68359 0.29688 1.3242 0.81641 1.7695l9.4297 8.0312c0.42188 0.35547 0.95312 0.55469 1.5039 0.55469 0.68359 0 1.3281-0.29688 1.7695-0.81641 0.40234-0.47266 0.59766-1.0742 0.54687-1.6914-0.050781-0.61719-0.33594-1.1797-0.80859-1.582l-7.3516-6.2617 7.3516-6.2617c0.47266-0.40625 0.76172-0.96875 0.80859-1.5859z"/>
  <path d="m60.812 48.434c-0.42188-0.35938-0.95312-0.55469-1.5039-0.55469-0.68359 0-1.3281 0.29688-1.7695 0.81641-0.40234 0.47266-0.59766 1.0742-0.54687 1.6914 0.050781 0.61719 0.33594 1.1797 0.80859 1.582l7.3516 6.2617-7.3516 6.2617c-0.47266 0.40234-0.75781 0.96484-0.80859 1.582-0.050782 0.61719 0.14453 1.2188 0.54687 1.6914 0.44141 0.51953 1.0859 0.82031 1.7695 0.82031 0.55078 0 1.0859-0.19531 1.5039-0.55469l9.4297-8.0312c0.51953-0.44141 0.81641-1.0859 0.81641-1.7695 0-0.67969-0.29688-1.3242-0.81641-1.7695z"/>
  <path d="m53.016 42.105c-0.15625-0.03125-0.32031-0.050781-0.48047-0.050781-1.0898 0-2.0469 0.77734-2.2695 1.8438l-5.8789 27.902c-0.26562 1.2539 0.53906 2.4883 1.7969 2.7539 0.16016 0.03125 0.32031 0.050781 0.47656 0.050781 1.0898 0 2.0469-0.77734 2.2695-1.8438l5.8789-27.902c0.26562-1.2539-0.53906-2.4883-1.793-2.7539z"/>
  <path d="m95 32.941v-0.003906-12.09c0-5.875-4.7773-10.652-10.652-10.652h-68.695c-5.875 0-10.652 4.7773-10.652 10.652v58.312c0 5.8672 4.7773 10.645 10.652 10.645h68.695c5.875 0 10.652-4.7773 10.652-10.645v-46.215-0.003906zm-10.652 52.215h-68.695c-3.3125 0-6.0039-2.6914-6.0039-5.9961v-43.895h80.707v43.895c-0.003907 3.3047-2.6953 5.9961-6.0078 5.9961zm-68.695-70.312h68.695c3.3125 0 6.0039 2.6914 6.0039 6.0039v9.7695h-80.703v-9.7695c0-3.3125 2.6914-6.0039 6.0039-6.0039z"/>
  <path d="m30.77 27.426c2.543 0 4.6133-2.0664 4.6133-4.6133 0-2.543-2.0703-4.6133-4.6133-4.6133s-4.6133 2.0664-4.6133 4.6133c0 2.543 2.0703 4.6133 4.6133 4.6133zm0-5.4453c0.46094 0 0.83203 0.37109 0.83203 0.83203s-0.37109 0.83203-0.83203 0.83203c-0.46094 0-0.83984-0.37109-0.83984-0.83203 0-0.45703 0.37891-0.83203 0.83984-0.83203z"/>
  <path d="m16.594 27.383c2.543 0 4.6133-2.0664 4.6133-4.6133 0-2.543-2.0664-4.6133-4.6133-4.6133-2.543 0-4.6133 2.0664-4.6133 4.6133 0.003906 2.543 2.0703 4.6133 4.6133 4.6133zm0-5.4453c0.46094 0 0.83203 0.37109 0.83203 0.83203 0 0.46094-0.37109 0.83203-0.83203 0.83203s-0.83203-0.37109-0.83203-0.83203c0.003906-0.46094 0.375-0.83203 0.83203-0.83203z"/>
  <path d="m44.934 27.469c2.543 0 4.6133-2.0664 4.6133-4.6133 0-2.5352-2.0664-4.6133-4.6133-4.6133-2.543 0-4.6133 2.0781-4.6133 4.6133 0 2.543 2.0703 4.6133 4.6133 4.6133zm0-5.4453c0.46094 0 0.83203 0.37109 0.83203 0.83203 0 0.46094-0.37109 0.83203-0.83203 0.83203-0.46094 0-0.83203-0.37109-0.83203-0.83203 0-0.45703 0.375-0.83203 0.83203-0.83203z"/>
 </g>
</svg>
